<svg width="54" height="40" viewBox="0 0 54 40" fill="none" xmlns="http://www.w3.org/2000/svg">
<path fill-rule="evenodd" clip-rule="evenodd" d="M0 20C0 8.95431 8.95431 0 20 0C22.4626 0 24.8213 0.445091 27 1.25922C29.1787 0.445091 31.5374 0 34 0C45.0457 0 54 8.95431 54 20C54 31.0457 45.0457 40 34 40C31.5374 40 29.1787 39.5549 27 38.7408C24.8213 39.5549 22.4626 40 20 40C8.95431 40 0 31.0457 0 20ZM33.25 34.9816C33.4984 34.9938 33.7485 35 34 35C42.2843 35 49 28.2843 49 20C49 11.7157 42.2843 5 34 5C33.7485 5 33.4984 5.00619 33.25 5.01843C37.39 8.68268 40 14.0365 40 20C40 25.9635 37.39 31.3173 33.25 34.9816ZM27 6.73009C31.7578 9.24508 35 14.2439 35 20C35 25.7561 31.7578 30.7549 27 33.2699C22.2422 30.7549 19 25.7561 19 20C19 14.2439 22.2422 9.24508 27 6.73009ZM20.75 5.01843C16.61 8.68268 14 14.0365 14 20C14 25.9635 16.61 31.3173 20.75 34.9816C20.5016 34.9938 20.2515 35 20 35C11.7157 35 5 28.2843 5 20C5 11.7157 11.7157 5 20 5C20.2515 5 20.5016 5.00619 20.75 5.01843Z" fill="url(#paint0_linear_32_43)"/>
<defs>
<linearGradient id="paint0_linear_32_43" x1="22" y1="1.5" x2="45.5" y2="39" gradientUnits="userSpaceOnUse">
<stop stop-color="#FF6900"/>
<stop offset="1" stop-color="#F54A03"/>
</linearGradient>
</defs>
</svg>
