<?xml version="1.0" encoding="UTF-8"?>
<svg id="Capa_2" data-name="Capa 2" xmlns="http://www.w3.org/2000/svg" xmlns:xlink="http://www.w3.org/1999/xlink" viewBox="0 0 121.3 121.49">
  <defs>
    <style>
      .cls-1 {
        fill: url(#Nueva_muestra_de_degradado_1-2);
      }

      .cls-2 {
        fill: url(#Nueva_muestra_de_degradado_1-3);
      }

      .cls-3 {
        fill: url(#Degradado_sin_nombre_3);
      }

      .cls-4 {
        fill: url(#Nueva_muestra_de_degradado_1);
      }
    </style>
    <linearGradient id="Degradado_sin_nombre_3" data-name="Degradado sin nombre 3" x1="44.09" y1="18.62" x2="78.85" y2="107.06" gradientUnits="userSpaceOnUse">
      <stop offset="0" stop-color="#f97316"/>
      <stop offset="1" stop-color="#c2410c"/>
    </linearGradient>
    <linearGradient id="Nueva_muestra_de_degradado_1" data-name="Nueva muestra de degradado 1" x1="-5.99" y1="40.51" x2="86.83" y2="40.51" gradientUnits="userSpaceOnUse">
      <stop offset="0" stop-color="#000"/>
      <stop offset="1" stop-color="#333"/>
      <stop offset="1" stop-color="#000014"/>
    </linearGradient>
    <linearGradient id="Nueva_muestra_de_degradado_1-2" data-name="Nueva muestra de degradado 1" x1="4.69" y1="60.74" x2="116.61" y2="60.74" xlink:href="#Nueva_muestra_de_degradado_1"/>
    <linearGradient id="Nueva_muestra_de_degradado_1-3" data-name="Nueva muestra de degradado 1" x1="34.47" y1="80.97" x2="127.29" y2="80.97" xlink:href="#Nueva_muestra_de_degradado_1"/>
  </defs>
  <g id="Capa_1-2" data-name="Capa 1">
    <g>
      <circle class="cls-3" cx="60.65" cy="60.74" r="51.16"/>
      <g>
        <path class="cls-4" d="M.83,80.85c-.29.36-.88.12-.83-.34.3-2.74.83-4.79,1.27-6.18.47-1.49,1.17-3.26,1.32-3.63.49-1.19,1.02-2.37,1.53-3.56,2.21-4.68,5-9.17,8.33-13.32,3.34-4.14,7.3-7.89,11.57-11.08,4.27-3.18,8.77-5.82,13.1-8.21,4.33-2.38,8.47-4.57,12.4-6.94,3.91-2.37,7.61-4.96,11.2-7.87,1.81-1.47,5.82-4.78,10.49-9.55,2.66-2.72,5.67-6.04,8.78-9.99.28-.36.85-.15.83.3-.09,1.97-.66,4.82-1.18,6.36-.41,1.22-.82,2.44-1.32,3.63-.49,1.19-1.02,2.37-1.53,3.56-2.21,4.68-4.99,9.17-8.33,13.33-3.34,4.14-7.3,7.89-11.57,11.07-4.27,3.18-8.77,5.82-13.11,8.2-4.33,2.38-8.48,4.56-12.4,6.93-3.91,2.37-7.61,4.96-11.21,7.87-1.2.97-5.39,4.39-10.49,9.56-2.6,2.64-5.63,5.92-8.85,9.87Z"/>
        <path class="cls-1" d="M12.92,109.38c-.35.43-1.06.14-1-.42.36-3.3,1-5.78,1.53-7.45.57-1.8,1.41-3.93,1.59-4.37.59-1.44,1.23-2.85,1.85-4.29,2.67-5.64,6.02-11.06,10.05-16.07,4.03-4.99,8.8-9.51,13.95-13.36,5.15-3.84,10.57-7.02,15.8-9.9,5.22-2.87,10.22-5.51,14.95-8.37,4.72-2.86,9.17-5.98,13.51-9.49,2.19-1.77,7.02-5.76,12.65-11.52,3.21-3.28,6.83-7.28,10.59-12.05.34-.43,1.03-.18,1,.36-.1,2.37-.8,5.81-1.43,7.66-.5,1.47-.99,2.94-1.59,4.38-.59,1.44-1.23,2.86-1.85,4.3-2.67,5.65-6.02,11.06-10.05,16.07-4.03,5-8.81,9.51-13.95,13.35-5.15,3.84-10.58,7.01-15.81,9.88-5.22,2.86-10.22,5.5-14.96,8.35-4.72,2.86-9.18,5.98-13.51,9.48-1.45,1.17-6.49,5.29-12.65,11.53-3.14,3.18-6.79,7.14-10.67,11.9Z"/>
        <path class="cls-2" d="M41.29,121.31c-.29.36-.88.12-.83-.34.3-2.74.83-4.79,1.27-6.18.47-1.49,1.17-3.26,1.32-3.63.49-1.19,1.02-2.37,1.53-3.56,2.21-4.68,5-9.17,8.33-13.32,3.34-4.14,7.3-7.89,11.57-11.08,4.27-3.18,8.77-5.82,13.1-8.21,4.33-2.38,8.47-4.57,12.4-6.94,3.91-2.37,7.61-4.96,11.2-7.87,1.81-1.47,5.82-4.78,10.49-9.55,2.66-2.72,5.67-6.04,8.78-9.99.28-.36.85-.15.83.3-.09,1.97-.66,4.82-1.18,6.36-.41,1.22-.82,2.44-1.32,3.63-.49,1.19-1.02,2.37-1.53,3.56-2.21,4.68-4.99,9.17-8.33,13.33-3.34,4.14-7.3,7.89-11.57,11.07-4.27,3.18-8.77,5.82-13.11,8.2-4.33,2.38-8.48,4.56-12.4,6.93-3.91,2.37-7.61,4.96-11.21,7.87-1.2.97-5.39,4.39-10.49,9.56-2.6,2.64-5.63,5.92-8.85,9.87Z"/>
      </g>
    </g>
  </g>
</svg>